<svg xmlns="http://www.w3.org/2000/svg" viewBox="0 0 1544 500" width="1544" height="500">
  <defs>
    <linearGradient id="bg" x1="0" y1="0" x2="1" y2="1">
      <stop offset="0%" stop-color="#0a0e12"/>
      <stop offset="100%" stop-color="#1a2028"/>
    </linearGradient>
    <linearGradient id="shield" x1="0.5" y1="0" x2="0.5" y2="1">
      <stop offset="0%" stop-color="#0073aa"/>
      <stop offset="50%" stop-color="#005f8d"/>
      <stop offset="100%" stop-color="#003d5c"/>
    </linearGradient>
    <radialGradient id="glow" cx="0.18" cy="0.5" r="0.3">
      <stop offset="0%" stop-color="#0073aa" stop-opacity="0.12"/>
      <stop offset="100%" stop-color="#0073aa" stop-opacity="0"/>
    </radialGradient>
    <filter id="shieldGlow" x="-50%" y="-50%" width="200%" height="200%">
      <feGaussianBlur in="SourceGraphic" stdDeviation="8" result="blur"/>
      <feColorMatrix in="blur" type="matrix"
        values="0 0 0 0 0
                0 0 0 0 0.64
                0 0 0 0 0.83
                0 0 0 0.5 0" result="glowColor"/>
      <feMerge>
        <feMergeNode in="glowColor"/>
        <feMergeNode in="SourceGraphic"/>
      </feMerge>
    </filter>
    <filter id="textShadow" x="-10%" y="-10%" width="120%" height="130%">
      <feDropShadow dx="0" dy="2" stdDeviation="4" flood-color="#000000" flood-opacity="0.3"/>
    </filter>
    <!-- Dot grid pattern -->
    <pattern id="dotGrid" x="0" y="0" width="24" height="24" patternUnits="userSpaceOnUse">
      <circle cx="12" cy="12" r="0.8" fill="#00b4e6" opacity="0.05"/>
    </pattern>
    <!-- Accent line pattern -->
    <pattern id="accentLines" x="0" y="0" width="48" height="48" patternUnits="userSpaceOnUse">
      <line x1="0" y1="24" x2="48" y2="24" stroke="#00b4e6" stroke-width="0.3" opacity="0.04"/>
      <line x1="24" y1="0" x2="24" y2="48" stroke="#00b4e6" stroke-width="0.3" opacity="0.04"/>
    </pattern>
    <!-- Decorative line gradient -->
    <linearGradient id="lineGrad" x1="0" y1="0" x2="1" y2="0">
      <stop offset="0%" stop-color="#00b4e6" stop-opacity="0"/>
      <stop offset="15%" stop-color="#00b4e6" stop-opacity="0.6"/>
      <stop offset="85%" stop-color="#00b4e6" stop-opacity="0.6"/>
      <stop offset="100%" stop-color="#00b4e6" stop-opacity="0"/>
    </linearGradient>
  </defs>

  <!-- Background -->
  <rect width="1544" height="500" fill="url(#bg)"/>

  <!-- Dot grid overlay -->
  <rect width="1544" height="500" fill="url(#dotGrid)"/>

  <!-- Accent lines overlay -->
  <rect width="1544" height="500" fill="url(#accentLines)"/>

  <!-- Radial glow behind shield -->
  <rect width="1544" height="500" fill="url(#glow)"/>

  <!-- Concentric isolation ring arcs -->
  <circle cx="280" cy="250" r="180" fill="none" stroke="#00b4e6" stroke-width="0.8"
          stroke-dasharray="10 16" opacity="0.07"/>
  <circle cx="280" cy="250" r="200" fill="none" stroke="#00b4e6" stroke-width="0.5"
          stroke-dasharray="6 18" opacity="0.04"/>
  <circle cx="280" cy="250" r="160" fill="none" stroke="#00b4e6" stroke-width="0.6"
          stroke-dasharray="8 14" opacity="0.05"/>

  <!-- Shield icon - centered vertically, left side, scaled up to 1.6 -->
  <g transform="translate(280, 250) scale(1.6)">
    <!-- Shield shape with glow -->
    <g filter="url(#shieldGlow)">
      <path d="M0 -90
               L66 -64
               C66 -64 70 4 44 44
               C24 74 0 90 0 90
               C0 90 -24 74 -44 44
               C-70 4 -66 -64 -66 -64
               Z"
            fill="url(#shield)" opacity="0.95"/>
    </g>
    <!-- Shield highlight -->
    <path d="M0 -90
             L66 -64
             C66 -64 70 4 44 44
             C24 74 0 90 0 90
             C0 90 -24 74 -44 44
             C-70 4 -66 -64 -66 -64
             Z"
          fill="none" stroke="#00b4e6" stroke-width="2" opacity="0.6"/>

    <!-- Mountain/landscape icon inside shield -->
    <g transform="translate(0, -8)">
      <!-- Image frame -->
      <rect x="-38" y="-30" width="76" height="56" rx="4" ry="4"
            fill="none" stroke="#f0f4f8" stroke-width="3" opacity="0.9"/>
      <!-- Large mountain -->
      <polygon points="-30,20 -6,-14 18,20"
               fill="#f0f4f8" opacity="0.9"/>
      <!-- Small mountain -->
      <polygon points="2,20 18,-4 34,20"
               fill="#f0f4f8" opacity="0.65"/>
      <!-- Sun circle -->
      <circle cx="20" cy="-14" r="8" fill="#f0f4f8" opacity="0.75"/>
    </g>
  </g>

  <!-- Text with shadow filter -->
  <g filter="url(#textShadow)">
    <text x="520" y="215" font-family="'DIN Alternate', 'Helvetica Neue', Arial, sans-serif" font-size="115" font-weight="700" fill="#f0f4f8" letter-spacing="-2">Client-Side Media</text>
    <text x="520" y="335" font-family="'DIN Alternate', 'Helvetica Neue', Arial, sans-serif" font-size="115" font-weight="700" fill="#00b4e6" letter-spacing="-2">Experiments</text>
  </g>

  <!-- Decorative line with gradient-faded ends -->
  <rect x="520" y="358" width="250" height="4" rx="2" fill="url(#lineGrad)"/>
</svg>
